<mxfile host="app.diagrams.net" modified="2023-07-16T13:28:48.158Z" agent="Mozilla/5.0 (Windows NT 10.0; Win64; x64) AppleWebKit/537.36 (KHTML, like Gecko) Chrome/115.0.0.0 Safari/537.36" version="21.3.5" etag="AmDPyKEed2hixKYVikZS" type="github">
  <diagram name="Page-1" id="_8wl95QI9b75BfUd_FfB">
    <mxGraphModel>
      <root>
        <mxCell id="0" />
        <mxCell id="1" parent="0" />
      </root>
    </mxGraphModel>
  </diagram>
</mxfile>
